#!OML:ASF I:\Actors\actors\Patient Classification 1\Patient 1\Session 1\Subject1.ASF
:FULLY-SPECIFIED
:DEGREES
1205
root 0.0779643 17.5343 8.48006 9.30166 -4.63597 -7.32123
lowerback -0.443993 4.08493 6.30213
upperback -11.3674 6.17046 2.59641
thorax -11.6468 2.55245 -1.24872
lowerneck -8.05812 -5.9908 -3.6424
upperneck 17.1499 -8.52287 4.52974
head 6.91265 -3.98084 1.32438
rclavicle -1.25234e-014 -1.78906e-015
rhumerus -1.86854 23.4998 -88.1866
rradius 82.1904
rwrist 4.56195
rhand -10.0502 -60.7747
rfingers 7.12502
rthumb 15.9353 -269.861
lclavicle -1.25234e-014 -1.78906e-015
lhumerus -57.1017 -2.52829 90.4653
lradius 95.4436
lwrist 31.9551
lhand -48.2916 -34.986
lfingers 7.12502
lthumb -20.9486 -6.09725
rfemur -7.39412 15.7803 23.9298
rtibia 9.35565
rfoot -14.2796 -20.6845
rtoes 2.89449
lfemur 5.5865 -37.3071 -14.4469
ltibia -3.07661
lfoot -19.4096 46.8688
ltoes 7.29132
1206
root 0.0904565 17.5352 8.4667 9.21548 -4.61028 -7.31281
lowerback -0.438763 4.14445 6.38736
upperback -11.4126 6.25681 2.56104
thorax -11.6865 2.58199 -1.34147
lowerneck -8.14896 -6.03166 -4.00758
upperneck 17.2156 -8.6221 5.04806
head 6.99407 -4.00589 1.53518
rclavicle 4.39811e-014 4.53229e-014
rhumerus -0.21016 23.2861 -87.5912
rradius 80.4208
rwrist 4.3545
rhand -10.0712 -60.4647
rfingers 7.12502
rthumb 15.9151 -449.831
lclavicle 4.39811e-014 4.53229e-014
lhumerus -56.8385 -2.47943 90.382
lradius 95.5246
lwrist 31.8524
lhand -48.264 -35.3211
lfingers 7.12502
lthumb -20.9221 -6.42944
rfemur -7.33935 15.8123 23.8881
rtibia 9.35521
rfoot -14.3695 -20.6892
rtoes 3.22727
lfemur 5.57643 -37.2177 -14.483
ltibia -3.06279
lfoot -19.0996 46.7919
ltoes 6.86413
1207
root 0.101288 17.5367 8.45421 9.12128 -4.51944 -7.33087
lowerback -0.609552 4.1942 6.41632
upperback -11.3027 6.3018 2.57934
thorax -11.4498 2.61337 -1.32356
lowerneck -8.45855 -6.06652 -4.38777
upperneck 17.2388 -8.69799 5.55285
head 7.1002 -4.0172 1.74042
rclavicle 2.3059e-014 -1.88845e-014
rhumerus 1.70544 22.9784 -86.795
rradius 78.445
rwrist 4.01108
rhand -9.90548 -59.9933
rfingers 7.12502
rthumb 16.0747 -449.347
lclavicle 2.3059e-014 -1.88845e-014
lhumerus -56.2945 -2.40275 90.3437
lradius 95.5212
lwrist 31.6363
lhand -48.172 -35.707
lfingers 7.12502
lthumb -20.8337 -6.80561
rfemur -7.21027 15.8448 23.8969
rtibia 9.2457
rfoot -14.4444 -20.7632
rtoes 3.80298
lfemur 5.51823 -36.9577 -14.4231
ltibia -3.04331
lfoot -18.8121 46.4929
ltoes 6.5762
1208
root 0.110635 17.5364 8.44135 9.03598 -4.40523 -7.29282
lowerback -1.147 4.16865 6.20036
upperback -10.9219 6.18965 2.76866
thorax -10.7286 2.62319 -0.941144
lowerneck -8.9415 -6.06226 -4.50653
upperneck 16.9942 -8.64379 5.57147
head 7.10979 -3.98992 1.75775
rclavicle -3.39922e-014 -1.19271e-015
rhumerus 4.13969 22.9505 -85.6515
rradius 76.2744
rwrist 3.20564
rhand -9.48865 -59.4245
rfingers 7.12502
rthumb 16.476 -448.745
lclavicle -3.39922e-014 -1.19271e-015
lhumerus -55.3738 -1.96082 90.3947
lradius 95.5509
lwrist 31.4578
lhand -48.0774 -36.1374
lfingers 7.12502
lthumb -20.7428 -7.22605
rfemur -7.09744 15.8688 23.8365
rtibia 9.12179
rfoot -14.4768 -20.8819
rtoes 4.14515
lfemur 5.41753 -36.717 -14.4072
ltibia -2.9882
lfoot -18.6728 46.1444
ltoes 6.62598
1209
root 0.119233 17.5345 8.42809 8.97923 -4.26401 -7.24993
lowerback -0.640255 4.28643 6.41604
upperback -11.3016 6.41952 2.52082
thorax -11.4149 2.66954 -1.39246
lowerneck -8.8898 -6.24447 -4.56523
upperneck 17.3347 -8.93576 5.69858
head 7.23577 -4.11911 1.77758
rclavicle 8.59744e-015 6.24184e-014
rhumerus 4.97971 22.2867 -85.3391
rradius 74.2209
rwrist 2.48273
rhand -9.09165 -59.0051
rfingers 7.12502
rthumb 16.8582 -448.293
lclavicle 8.59744e-015 6.24184e-014
lhumerus -55.769 -2.27349 90.2848
lradius 95.7873
lwrist 31.3675
lhand -48.0474 -36.5777
lfingers 7.12502
lthumb -20.714 -7.66321
rfemur -7.03502 15.9343 23.7726
rtibia 9.04418
rfoot -14.4772 -21.0891
rtoes 4.0832
lfemur 5.33933 -36.7083 -14.4222
ltibia -2.9821
lfoot -18.5058 45.9907
ltoes 6.73567
1210
root 0.127016 17.5328 8.4141 8.93815 -4.06911 -7.25347
lowerback -0.506392 4.34608 6.5088
upperback -11.4112 6.5211 2.43519
thorax -11.5996 2.69627 -1.5572
lowerneck -9.11731 -6.37227 -4.54682
upperneck 17.5536 -9.10935 5.62896
head 7.35288 -4.19851 1.72532
rclavicle 1.07841e-014 5.24792e-014
rhumerus 6.22863 21.784 -84.8242
rradius 72.122
rwrist 2.29822
rhand -8.97684 -58.6247
rfingers 7.12502
rthumb 16.9687 -447.903
lclavicle 1.07841e-014 5.24792e-014
lhumerus -55.6665 -2.34616 90.284
lradius 95.8378
lwrist 31.1163
lhand -48.0305 -37.12
lfingers 7.12502
lthumb -20.6977 -8.20371
rfemur -6.98427 15.9335 23.7693
rtibia 8.96963
rfoot -14.4464 -21.3007
rtoes 3.88595
lfemur 5.21703 -36.6562 -14.3353
ltibia -2.99256
lfoot -18.0798 45.7881
ltoes 6.46834
1211
root 0.132905 17.5324 8.39877 8.87111 -3.84142 -7.28375
lowerback -0.493539 4.36526 6.54678
upperback -11.3944 6.55104 2.4401
thorax -11.5829 2.70882 -1.57534
lowerneck -9.37798 -6.47991 -4.57584
upperneck 17.6027 -9.23767 5.57638
head 7.42123 -4.25963 1.69066
rclavicle 1.67973e-014 -1.74931e-014
rhumerus 7.67715 21.2947 -84.2297
rradius 69.8947
rwrist 2.7981
rhand -8.82111 -57.8008
rfingers 7.12502
rthumb 17.1186 -447.067
lclavicle 1.67973e-014 -1.74931e-014
lhumerus -55.3511 -2.30017 90.3539
lradius 95.7824
lwrist 30.8383
lhand -47.9554 -37.3585
lfingers 7.12502
lthumb -20.6256 -8.43438
rfemur -6.90318 15.9095 23.812
rtibia 8.88993
rfoot -14.4438 -21.502
rtoes 3.7331
lfemur 5.05728 -36.4213 -14.1687
ltibia -2.97628
lfoot -17.4554 45.4113
ltoes 5.87197
1212
root 0.139106 17.5321 8.38276 8.79149 -3.60971 -7.31585
lowerback -0.435993 4.38743 6.65582
upperback -11.3637 6.59114 2.4301
thorax -11.5678 2.71819 -1.65184
lowerneck -9.64418 -6.62913 -4.81011
upperneck 17.6591 -9.42809 5.72328
head 7.51664 -4.34591 1.74587
rclavicle -4.47266e-016 -1.39149e-015
rhumerus 9.09263 20.8217 -83.6067
rradius 67.6439
rwrist 3.52625
rhand -8.39491 -56.588
rfingers 7.12502
rthumb 17.5288 -445.818
lclavicle -4.47266e-016 -1.39149e-015
lhumerus -55.0556 -2.26126 90.4483
lradius 95.7502
lwrist 30.6592
lhand -47.9773 -37.6747
lfingers 7.12502
lthumb -20.6466 -8.75281
rfemur -6.83151 15.9163 23.8639
rtibia 8.85618
rfoot -14.4466 -21.7331
rtoes 3.3242
lfemur 4.91544 -36.2123 -14.0162
ltibia -2.95968
lfoot -16.8646 45.0586
ltoes 5.20655
1213
root 0.147016 17.5322 8.36574 8.73394 -3.39291 -7.33248
lowerback -0.381025 4.42014 6.77712
upperback -11.3261 6.64455 2.41101
thorax -11.5396 2.73293 -1.74519
lowerneck -9.89136 -6.7474 -4.94522
upperneck 17.6936 -9.57107 5.77112
head 7.58952 -4.4123 1.75872
rclavicle 4.82053e-015 -4.37326e-015
rhumerus 10.4029 20.4083 -82.971
rradius 65.5982
rwrist 3.63059
rhand -7.74235 -55.7188
rfingers 7.12502
rthumb 18.1567 -444.891
lclavicle 4.82053e-015 -4.37326e-015
lhumerus -54.8082 -2.24243 90.5475
lradius 95.7489
lwrist 30.5893
lhand -47.9258 -38.0963
lfingers 7.12502
lthumb -20.5971 -9.16905
rfemur -6.80591 15.91 23.8802
rtibia 8.84855
rfoot -14.4485 -21.9389
rtoes 3.09141
lfemur 4.73404 -36.0283 -13.8714
ltibia -2.91875
lfoot -16.3867 44.725
ltoes 4.62047
1214
root 0.154178 17.5334 8.34931 8.69986 -3.18743 -7.33834
lowerback -0.321233 4.46523 6.87354
upperback -11.3138 6.71426 2.37365
thorax -11.5426 2.75542 -1.8473
lowerneck -10.1531 -6.8432 -4.8932
upperneck 17.7657 -9.67628 5.61418
head 7.65527 -4.46572 1.67844
rclavicle -1.58531e-014 -2.8625e-014
rhumerus 11.5246 19.9453 -82.4317
rradius 63.8518
rwrist 2.98555
rhand -7.24884 -55.3655
rfingers 7.12502
rthumb 18.6315 -444.493
lclavicle -1.58531e-014 -2.8625e-014
lhumerus -54.6309 -2.29692 90.6351
lradius 95.7334
lwrist 30.584
lhand -47.7149 -38.2262
lfingers 7.12502
lthumb -20.3944 -9.2772
rfemur -6.78917 15.8956 23.8732
rtibia 8.81095
rfoot -14.5318 -22.11
rtoes 3.4934
lfemur 4.50799 -35.8538 -13.7222
ltibia -2.84185
lfoot -15.9752 44.4041
ltoes 4.1089
1215
root 0.159938 17.5334 8.33547 8.67455 -3.01346 -7.35871
lowerback -0.265409 4.54032 6.96942
upperback -11.3145 6.82336 2.31672
thorax -11.5526 2.79555 -1.97321
lowerneck -10.4433 -6.97237 -4.56665
upperneck 17.8617 -9.81252 5.13164
head 7.70395 -4.54469 1.4443
rclavicle -3.87133e-014 -5.60573e-014
rhumerus 12.4967 19.3861 -82.0012
rradius 62.284
rwrist 2.4341
rhand -7.36412 -55.2063
rfingers 7.12502
rthumb 18.5206 -444.345
lclavicle -3.87133e-014 -5.60573e-014
lhumerus -54.5006 -2.46213 90.7213
lradius 95.7366
lwrist 30.6096
lhand -47.6995 -38.1923
lfingers 7.12502
lthumb -20.3796 -9.24172
rfemur -6.76485 15.9047 23.8889
rtibia 8.7653
rfoot -14.6827 -22.284
rtoes 3.9693
lfemur 4.34148 -35.7622 -13.5994
ltibia -2.79625
lfoot -15.6912 44.1898
ltoes 3.74411
1216
root 0.165106 17.5327 8.32241 8.65731 -2.86197 -7.38082
lowerback -0.21342 4.63244 7.0334
upperback -11.3014 6.9542 2.2805
thorax -11.5477 2.85162 -2.06054
lowerneck -10.603 -7.08105 -4.07545
upperneck 17.7209 -9.90797 4.48496
head 7.63057 -4.61567 1.14389
rclavicle -2.05245e-014 -2.62396e-014
rhumerus 13.3709 18.7869 -81.6177
rradius 60.8093
rwrist 2.66244
rhand -7.70329 -54.9899
rfingers 7.12502
rthumb 18.1943 -444.159
lclavicle -2.05245e-014 -2.62396e-014
lhumerus -54.3701 -2.60215 90.837
lradius 95.76
lwrist 30.6838
lhand -47.7306 -38.229
lfingers 7.12502
lthumb -20.4095 -9.28162
rfemur -6.76433 15.8998 23.9047
rtibia 8.73995
rfoot -14.7715 -22.4206
rtoes 4.11093
lfemur 4.19724 -35.6019 -13.4603
ltibia -2.80833
lfoot -15.4282 43.9066
ltoes 3.51328
1217
root 0.169738 17.5331 8.30906 8.64849 -2.72782 -7.30126
lowerback -0.152512 4.74454 7.01208
upperback -11.2748 7.10496 2.22348
thorax -11.5357 2.92502 -2.12611
lowerneck -10.6548 -7.21896 -4.32053
upperneck 17.4692 -10.0756 4.68123
head 7.58863 -4.69627 1.22874
rclavicle 9.19379e-015 2.44505e-014
rhumerus 14.1254 18.1666 -81.238
rradius 59.481
rwrist 3.58022
rhand -7.66176 -54.5372
rfingers 7.12502
rthumb 18.2343 -443.703
lclavicle 9.19379e-015 2.44505e-014
lhumerus -54.2059 -2.70773 90.9985
lradius 95.7515
lwrist 30.6964
lhand -47.6232 -38.34
lfingers 7.12502
lthumb -20.3063 -9.38155
rfemur -6.80099 15.8477 23.7884
rtibia 8.73039
rfoot -14.7777 -22.4977
rtoes 4.16944
lfemur 4.01981 -35.3398 -13.4012
ltibia -2.82995
lfoot -15.08 43.5197
ltoes 3.24435
